# xmcd CD database file
#
# Track frame offsets:
#	150
#	21936
#	38896
#	54069
#
# Disc length: 1024 seconds
#
# Revision: 0
# Processed by: cddbd v1.5.2PL0 Copyright (c) Steve Scherf et al.
# Submitted via: CDex 1.51
#
DISCID=2603fe04
DTITLE=Noble Lake - Rose of the Winds
DYEAR=2010
DGENRE=Country
TTITLE0=Rose of the Winds
TTITLE1=Tony Alphonso Lorraine
TTITLE2=Forward Plain
TTITLE3=Dead and Gone
EXTD=YEAR: 2010
EXTT0=
EXTT1=
EXTT2=
EXTT3=
PLAYORDER=
